<svg width="832" height="832" viewBox="0 0 832 832" fill="none" xmlns="http://www.w3.org/2000/svg">
<g filter="url(#filter0_d_121_960)">
<mask id="mask0_121_960" style="mask-type:alpha" maskUnits="userSpaceOnUse" x="4" y="0" width="824" height="824">
<path d="M4 272.09C4 175.846 4 127.724 23.0271 91.0953C39.0611 60.2286 64.2286 35.0611 95.0953 19.0271C131.724 0 179.846 0 276.09 0H555.91C652.154 0 700.276 0 736.905 19.0271C767.771 35.0611 792.939 60.2286 808.973 91.0953C828 127.724 828 175.846 828 272.09V551.91C828 648.154 828 696.276 808.973 732.905C792.939 763.771 767.771 788.939 736.905 804.973C700.276 824 652.154 824 555.91 824H276.09C179.846 824 131.724 824 95.0953 804.973C64.2286 788.939 39.0611 763.771 23.0271 732.905C4 696.276 4 648.154 4 551.91V272.09Z" fill="white" style="fill:white;fill-opacity:1;"/>
</mask>
<g mask="url(#mask0_121_960)">
<rect width="824" height="824" transform="translate(4 0.250977)" fill="#7B61FF" style="fill:#7B61FF;fill:color(display-p3 0.4824 0.3804 1.0000);fill-opacity:1;"/>
<path fill-rule="evenodd" clip-rule="evenodd" d="M541.531 381.673C489.104 381.673 446.578 339.172 446.578 286.72C446.578 234.292 489.079 191.767 541.531 191.767C593.984 191.767 636.484 234.292 636.484 286.72C636.484 339.147 593.959 381.673 541.531 381.673ZM636.425 534.418C636.425 521.681 633.898 509.069 629.018 497.308C624.139 485.547 616.957 474.837 607.923 465.829C598.89 456.821 588.18 449.689 576.369 444.809C564.557 439.93 551.902 438.109 539.158 437.427C519.805 436.392 497.273 433.173 479.202 427.693C460.698 422.083 444.894 409.927 431.231 396.314C417.568 382.676 406.012 366.699 399.752 348.469C393.469 330.173 391.383 307.917 389.992 288.688C388.641 269.995 384.237 250.752 373.527 234.813C362.817 218.873 347.602 206.461 329.835 199.129C312.094 191.772 292.55 189.895 273.682 193.649C254.814 197.427 237.498 206.686 223.91 220.274C210.322 233.862 201.089 251.153 197.36 269.995C193.632 288.813 195.583 308.306 202.965 326.023C210.347 343.74 222.834 358.879 238.849 369.514C254.864 380.149 273.695 385.089 292.9 385.779C313 386.501 333.922 389.72 352.857 395.438C371.367 401.028 387.165 413.205 400.828 426.817C414.49 440.455 426.026 456.44 432.307 474.662C438.531 492.72 441.157 515.182 441.991 534.443C442.555 547.438 444.219 560.042 449.023 571.953C453.828 583.865 460.959 594.725 470.018 603.858C479.077 612.992 489.837 620.274 501.723 625.228C513.609 630.183 526.371 632.735 539.233 632.735C552.096 632.735 564.858 630.183 576.744 625.228C588.63 620.274 599.415 613.017 608.449 603.858C617.508 594.725 624.639 583.865 629.444 571.953C634.248 560.042 636.651 547.28 636.475 534.443H636.425V534.418ZM195.516 537.782C195.516 590.235 238.041 632.735 290.469 632.735C342.896 632.735 385.422 590.21 385.422 537.782C385.422 485.355 342.896 442.829 290.469 442.829C238.041 442.829 195.516 485.355 195.516 537.782Z" fill="white" style="fill:white;fill-opacity:1;"/>
</g>
</g>
<defs>
<filter id="filter0_d_121_960" x="0" y="0.250977" width="832" height="831.749" filterUnits="userSpaceOnUse" color-interpolation-filters="sRGB">
<feFlood flood-opacity="0" result="BackgroundImageFix"/>
<feColorMatrix in="SourceAlpha" type="matrix" values="0 0 0 0 0 0 0 0 0 0 0 0 0 0 0 0 0 0 127 0" result="hardAlpha"/>
<feOffset dy="4"/>
<feGaussianBlur stdDeviation="2"/>
<feComposite in2="hardAlpha" operator="out"/>
<feColorMatrix type="matrix" values="0 0 0 0 0 0 0 0 0 0 0 0 0 0 0 0 0 0 0.25 0"/>
<feBlend mode="normal" in2="BackgroundImageFix" result="effect1_dropShadow_121_960"/>
<feBlend mode="normal" in="SourceGraphic" in2="effect1_dropShadow_121_960" result="shape"/>
</filter>
</defs>
</svg>
