<svg xmlns="http://www.w3.org/2000/svg" width="1087" height="320" fill="none" viewBox="0 0 1087 320"><path fill="color(display-p3 .4824 .3804 1)" fill-rule="evenodd" d="M150.79 146.686c-22.827 0-41.343-18.505-41.343-41.343C109.447 82.516 127.952 64 150.79 64c22.838 0 41.343 18.516 41.343 41.343 0 22.827-18.516 41.343-41.343 41.343Zm41.318 66.506a42.183 42.183 0 0 0-12.41-29.864 42.36 42.36 0 0 0-13.739-9.152c-5.143-2.125-10.599-2.878-16.538-3.196-8.426-.451-17.901-1.871-25.769-4.256-8.057-2.443-14.938-7.736-20.887-13.663-5.949-5.938-10.98-12.895-13.706-20.832-2.736-7.966-3.672-17.699-4.25-26.029-.572-8.248-2.505-16.517-7.169-23.458a42.401 42.401 0 0 0-19.023-15.536c-7.725-3.204-16.234-4.02-24.45-2.386a42.42 42.42 0 0 0-21.67 11.592 42.186 42.186 0 0 0-11.56 21.65 42.126 42.126 0 0 0 2.44 24.394 42.235 42.235 0 0 0 15.624 18.936c6.709 4.455 15.183 6.553 23.534 7.082 8.761.555 17.861 1.716 26.106 4.206 8.059 2.433 14.937 7.735 20.886 13.662 5.949 5.938 10.972 12.898 13.707 20.832 2.71 7.862 3.994 17.648 4.216 26.029.169 6.363.97 11.146 3.062 16.332a42.094 42.094 0 0 0 9.141 13.892 42.446 42.446 0 0 0 13.805 9.304A42.456 42.456 0 0 0 149.79 256c5.6 0 11.157-1.111 16.332-3.269a42.195 42.195 0 0 0 13.805-9.304 42.094 42.094 0 0 0 9.141-13.892 42.132 42.132 0 0 0 3.061-16.332h-.021v-.011ZM.133 214.657C.133 237.495 18.65 256 41.476 256c22.828 0 41.343-18.516 41.343-41.343 0-22.827-18.515-41.343-41.343-41.343-22.827 0-41.343 18.516-41.343 41.343Z" clip-rule="evenodd"/><path fill="color(display-p3 .4824 .3804 1)" d="M985.602 256.22v-87.391c0-20.391-1.059-33.368-11.387-48.198h55.875v36.81c9.01-25.422 24.9-38.663 42.64-38.663 2.65 0 6.09.264 8.47 1.059l5.56 48.992h-1.59c-5.56-3.178-13.5-5.297-21.98-5.297-20.92 0-34.16 14.036-34.16 45.02 0 17.478 3.97 35.486 12.71 47.668h-56.138ZM964.272 231.065c-10.064 14.83-31.249 27.541-59.32 27.541-42.107 0-69.383-24.893-69.383-68.324 0-42.901 30.454-72.031 69.383-72.031 37.075 0 59.849 23.039 59.849 56.142 0 6.356.53 10.858 2.384 15.36h-85.538c2.119 24.363 15.095 40.252 41.577 40.252 15.625 0 27.807-4.766 41.048-14.565v15.625Zm-60.115-91.364c-11.387 0-20.921 9.799-22.774 33.368h45.019c-.265-22.245-6.885-33.368-22.245-33.368ZM668.673 120.634h55.877v23.04c7.945-14.301 22.775-25.423 44.225-25.423 30.19 0 52.964 24.364 52.964 64.087 0 42.371-29.13 76.268-75.209 76.268-8.209 0-15.889-1.324-21.98-2.913v16.949c0 18.272 2.383 31.778 12.182 43.96H680.59V164.86c0-18.803-2.384-32.044-11.917-44.226Zm54.288 74.945c0 25.158 7.415 44.755 25.953 44.755 16.154 0 25.952-18.803 25.952-46.609 0-31.249-8.209-48.197-25.423-48.197-11.917 0-26.482 12.446-26.482 50.051ZM626.759 100.767c-11.652 0-26.482-11.388-26.482-22.775 0-11.652 14.83-23.569 26.482-23.569 11.387 0 26.747 11.917 26.747 23.57 0 11.386-15.625 22.774-26.747 22.774Zm-33.633 19.861h55.878v91.893c0 16.949 2.383 32.044 12.181 43.696h-56.142v-91.364c0-18.802-2.383-32.043-11.917-44.225ZM462.245 166.184v-18.538c10.064-15.889 31.249-29.395 56.672-29.395 39.194 0 57.201 21.186 57.201 54.818v39.458c0 18.538 2.913 32.044 12.182 43.696h-55.877v-20.656c-7.415 11.387-21.451 22.774-43.431 22.774-23.304 0-37.604-12.711-37.604-33.367 0-19.862 13.241-31.779 43.43-39.194 28.866-7.415 37.605-9.268 37.605-21.98 0-10.857-9.798-15.359-24.628-15.359-17.214 0-33.898 7.679-44.755 17.743h-.795Zm32.309 53.493c0 8.21 4.766 15.625 15.094 15.625 11.652 0 22.775-10.328 22.775-31.249v-12.447l-20.656 7.415c-10.063 4.502-17.213 10.064-17.213 20.656ZM243.927 64.219h62.498v84.213h73.62v-41.577c0-18.008-2.648-30.72-12.182-42.636h62.233v149.359c0 18.007 2.648 31.249 12.182 42.636h-62.233v-81.565h-73.62v38.929c0 18.007 2.648 31.249 12.181 42.636h-62.233V106.855c0-18.008-2.648-30.72-12.446-42.636Z"/></svg>